<svg width="30" height="22" viewBox="0 0 30 22" fill="none" xmlns="http://www.w3.org/2000/svg">
<path d="M15.3333 18C15.3333 18 14 18 14 16.6667C14 15.3333 15.3333 11.3333 22 11.3333C28.6667 11.3333 30 15.3333 30 16.6667C30 18 28.6667 18 28.6667 18H15.3333ZM22 10C23.0609 10 24.0783 9.57857 24.8284 8.82843C25.5786 8.07828 26 7.06087 26 6C26 4.93913 25.5786 3.92172 24.8284 3.17157C24.0783 2.42143 23.0609 2 22 2C20.9391 2 19.9217 2.42143 19.1716 3.17157C18.4214 3.92172 18 4.93913 18 6C18 7.06087 18.4214 8.07828 19.1716 8.82843C19.9217 9.57857 20.9391 10 22 10V10Z" fill="#3F8CFF"/>
<path d="M10.566 4.4V6.29L5.886 17H2.718L7.236 6.776H3.06V8.828H0.468V4.4H10.566Z" fill="#3F8CFF"/>
</svg>
