<svg width="24" height="24" viewBox="0 0 24 24" fill="none" xmlns="http://www.w3.org/2000/svg">
<path fill-rule="evenodd" clip-rule="evenodd" d="M7.20098 0C5.29142 0 3.46007 0.758569 2.10981 2.10883C0.759546 3.45909 0.000976563 5.29044 0.000976562 7.2L0.000976563 16.8C0.000976563 18.7096 0.759546 20.5409 2.10981 21.8912C3.46007 23.2414 5.29142 24 7.20098 24H16.801C18.7105 24 20.5419 23.2414 21.8921 21.8912C23.2424 20.5409 24.001 18.7096 24.001 16.8V7.2C24.001 5.29044 23.2424 3.45909 21.8921 2.10883C20.5419 0.758569 18.7105 0 16.801 0L7.20098 0ZM6.40098 12C6.40098 10.5148 6.99098 9.09041 8.04118 8.0402C9.09138 6.99 10.5158 6.4 12.001 6.4C13.4862 6.4 14.9106 6.99 15.9608 8.0402C17.011 9.09041 17.601 10.5148 17.601 12C17.601 13.4852 17.011 14.9096 15.9608 15.9598C14.9106 17.01 13.4862 17.6 12.001 17.6C10.5158 17.6 9.09138 17.01 8.04118 15.9598C6.99098 14.9096 6.40098 13.4852 6.40098 12ZM17.601 6.4H19.201V4.8H17.601V6.4Z" fill="white"/>
</svg>
