<svg width="13" height="16" viewBox="0 0 13 16" fill="none" xmlns="http://www.w3.org/2000/svg">
<path d="M6.25 0C9.70192 0 12.5 2.79808 12.5 6.25C12.5 8.89103 10.6442 11.7692 6.98077 14.9154C6.77707 15.0904 6.51735 15.1865 6.2488 15.1862C5.98026 15.186 5.7207 15.0894 5.51731 14.9141L5.275 14.7038C1.77372 11.6397 0 8.83205 0 6.25C0 2.79808 2.79808 0 6.25 0ZM6.25 3.84615C5.61246 3.84615 5.00103 4.09942 4.55022 4.55022C4.09942 5.00103 3.84615 5.61246 3.84615 6.25C3.84615 6.88754 4.09942 7.49897 4.55022 7.94978C5.00103 8.40059 5.61246 8.65385 6.25 8.65385C6.88754 8.65385 7.49897 8.40059 7.94978 7.94978C8.40059 7.49897 8.65385 6.88754 8.65385 6.25C8.65385 5.61246 8.40059 5.00103 7.94978 4.55022C7.49897 4.09942 6.88754 3.84615 6.25 3.84615Z" fill="white"/>
</svg>
