<svg width="80" height="80" viewBox="0 0 80 80" fill="none" xmlns="http://www.w3.org/2000/svg">
<rect width="80" height="80" fill="#FFB23F"/>
<path d="M25 58C25 58 22 58 22 55C22 52 25 43 40 43C55 43 58 52 58 55C58 58 55 58 55 58H25ZM40 40C42.3869 40 44.6761 39.0518 46.364 37.364C48.0518 35.6761 49 33.3869 49 31C49 28.6131 48.0518 26.3239 46.364 24.636C44.6761 22.9482 42.3869 22 40 22C37.6131 22 35.3239 22.9482 33.636 24.636C31.9482 26.3239 31 28.6131 31 31C31 33.3869 31.9482 35.6761 33.636 37.364C35.3239 39.0518 37.6131 40 40 40V40Z" fill="white"/>
</svg>
