<svg width="1920" height="96" viewBox="0 0 1920 96" fill="none" xmlns="http://www.w3.org/2000/svg">
<path fill-rule="evenodd" clip-rule="evenodd" d="M1920 3.15311L1856 13.4694C1792 23.7858 1664 44.4184 1536 53.0153C1408 61.6123 1280 58.1735 1152 46.1378C1024 34.1021 896 13.4694 768 4.8725C640 -3.72443 512 -0.285662 384 10.0307C256 20.347 128 37.5409 64 46.1378L0 54.7347V96H64C128 96 256 96 384 96C512 96 640 96 768 96C896 96 1024 96 1152 96C1280 96 1408 96 1536 96C1664 96 1792 96 1856 96H1920V3.15311Z" fill="white"/>
</svg>
