<svg width="24" height="24" viewBox="0 0 24 24" fill="none" xmlns="http://www.w3.org/2000/svg">
<path d="M15.684 0H8.31675C1.59375 0 0 1.59375 0 8.31675V15.684C0 22.407 1.59375 24.0007 8.31675 24.0007H15.684C22.407 24.0007 24.0007 22.407 24.0007 15.684V8.31675C24.0007 1.59375 22.3912 0 15.684 0ZM19.3755 17.121H17.6332C16.9732 17.121 16.77 16.5975 15.5827 15.3945C14.5515 14.3947 14.0947 14.262 13.8405 14.262C13.4812 14.262 13.3792 14.3633 13.3792 14.856V16.4303C13.3792 16.8525 13.2465 17.106 12.129 17.106C10.281 17.106 8.2305 15.9885 6.79275 13.9065C4.6245 10.8555 4.03125 8.57025 4.03125 8.09775C4.03125 7.8435 4.1325 7.60575 4.62075 7.60575H6.36675C6.8085 7.60575 6.9765 7.809 7.14825 8.2815C8.0115 10.7738 9.44925 12.957 10.0425 12.957C10.2615 12.957 10.3628 12.8558 10.3628 12.297V9.723C10.296 8.53575 9.67125 8.43375 9.67125 8.01225C9.67125 7.809 9.83925 7.60575 10.1085 7.60575H12.8542C13.2255 7.60575 13.362 7.809 13.362 8.24625V11.7188C13.362 12.0938 13.53 12.2265 13.6312 12.2265C13.8502 12.2265 14.0377 12.0938 14.4435 11.6873C15.6975 10.281 16.596 8.11275 16.596 8.11275C16.713 7.8585 16.9163 7.62075 17.358 7.62075H19.104C19.6275 7.62075 19.7445 7.89 19.6275 8.265C19.4085 9.2805 17.2717 12.2963 17.2717 12.2963C17.088 12.6007 17.0175 12.7335 17.2717 13.0732C17.4592 13.3275 18.069 13.8548 18.4748 14.3273C19.221 15.1748 19.7948 15.8857 19.9478 16.3778C20.1195 16.866 19.866 17.1203 19.3732 17.1203L19.3755 17.121Z" fill="#3F8CFF"/>
</svg>
