<svg width="23" height="21" viewBox="0 0 23 21" fill="none" xmlns="http://www.w3.org/2000/svg">
<path d="M5.8335 1.83333H6.75016V0H8.5835V1.83333H17.7502V0H19.5835V1.83333H20.5002C21.5085 1.83333 22.3335 2.65833 22.3335 3.66667V18.3333C22.3335 19.3417 21.5085 20.1667 20.5002 20.1667H5.8335C4.82516 20.1667 4.00016 19.3417 4.00016 18.3333V3.66667C4.00016 2.65833 4.82516 1.83333 5.8335 1.83333ZM5.8335 18.3333H20.5002V6.41667H5.8335V18.3333Z" fill="white"/>
<path d="M12.3536 12.3536C12.5488 12.1583 12.5488 11.8417 12.3536 11.6464L9.17157 8.46447C8.97631 8.2692 8.65973 8.2692 8.46447 8.46447C8.2692 8.65973 8.2692 8.97631 8.46447 9.17157L11.2929 12L8.46447 14.8284C8.2692 15.0237 8.2692 15.3403 8.46447 15.5355C8.65973 15.7308 8.97631 15.7308 9.17157 15.5355L12.3536 12.3536ZM0 12.5L12 12.5V11.5L0 11.5L0 12.5Z" fill="white"/>
</svg>
